HIERARCHY
ROOT Hips
{
	OFFSET -21.947001 39.810204 44.525997
	CHANNELS 6 Xposition Yposition Zposition Zrotation Xrotation Yrotation
	JOINT Chest
	{
		OFFSET -0.201599 0.334099 6.453201
		CHANNELS 6 Xposition Yposition Zposition Zrotation Xrotation Yrotation
		JOINT Chest2
		{
			OFFSET 0.000000 0.000000 3.568001
			CHANNELS 6 Xposition Yposition Zposition Zrotation Xrotation Yrotation
			JOINT Neck
			{
				OFFSET 0.000000 0.000000 8.296402
				CHANNELS 6 Xposition Yposition Zposition Zrotation Xrotation Yrotation
				JOINT Head
				{
					OFFSET 0.000000 0.000000 2.173901
					CHANNELS 6 Xposition Yposition Zposition Zrotation Xrotation Yrotation
					End Site
					{
						OFFSET 0.000000 0.000000 7.891998
					}
				}
			}
			JOINT LeftCollar
			{
				OFFSET 1.927601 0.221401 6.049000
				CHANNELS 6 Xposition Yposition Zposition Zrotation Xrotation Yrotation
				JOINT LeftShoulder
				{
					OFFSET 4.959700 0.000000 0.000000
					CHANNELS 6 Xposition Yposition Zposition Zrotation Xrotation Yrotation
					JOINT LeftElbow
					{
						OFFSET 0.000000 0.000000 -8.654202
						CHANNELS 6 Xposition Yposition Zposition Zrotation Xrotation Yrotation
						JOINT LeftWrist
						{
							OFFSET 0.000000 0.000000 -13.864101
							CHANNELS 6 Xposition Yposition Zposition Zrotation Xrotation Yrotation
							End Site
							{
								OFFSET 0.000000 0.000000 -2.173901
							}
						}
					}
				}
			}
			JOINT RightCollar
			{
				OFFSET -3.155701 -0.764999 6.687801
				CHANNELS 6 Xposition Yposition Zposition Zrotation Xrotation Yrotation
				JOINT RightShoulder
				{
					OFFSET -3.592899 0.000000 0.000000
					CHANNELS 6 Xposition Yposition Zposition Zrotation Xrotation Yrotation
					JOINT RightElbow
					{
						OFFSET 0.000000 0.000000 -10.352398
						CHANNELS 6 Xposition Yposition Zposition Zrotation Xrotation Yrotation
						JOINT RightWrist
						{
							OFFSET 0.000000 0.000000 -12.750301
							CHANNELS 6 Xposition Yposition Zposition Zrotation Xrotation Yrotation
							End Site
							{
								OFFSET 0.000000 0.000000 -2.173901
							}
						}
					}
				}
			}
		}
	}
	JOINT LeftHip
	{
		OFFSET 2.460600 -0.518101 -2.735500
		CHANNELS 6 Xposition Yposition Zposition Zrotation Xrotation Yrotation
		JOINT LeftKnee
		{
			OFFSET 0.000000 -0.000004 -17.005899
			CHANNELS 6 Xposition Yposition Zposition Zrotation Xrotation Yrotation
			JOINT LeftAnkle
			{
				OFFSET 0.000000 0.000000 -19.194401
				CHANNELS 6 Xposition Yposition Zposition Zrotation Xrotation Yrotation
				End Site
				{
					OFFSET 0.000000 -8.134600 0.000000
				}
			}
		}
	}
	JOINT RightHip
	{
		OFFSET -3.115499 -0.679600 -2.320301
		CHANNELS 6 Xposition Yposition Zposition Zrotation Xrotation Yrotation
		JOINT RightKnee
		{
			OFFSET 0.000000 -0.000004 -17.680401
			CHANNELS 6 Xposition Yposition Zposition Zrotation Xrotation Yrotation
			JOINT RightAnkle
			{
				OFFSET 0.000000 0.000000 -16.993797
				CHANNELS 6 Xposition Yposition Zposition Zrotation Xrotation Yrotation
				End Site
				{
					OFFSET 0.000000 -8.842300 0.000000
				}
			}
		}
	}
}
MOTION
Frames: 5
Frame Time: 0.041667
-57.260994 13.787804 41.457592 2070.501141 9.960730 7.173673 -0.201600 0.334091 6.453204 6.822310 13.499970 19.848772 -0.000003 0.000003 3.567995 -5.650227 -4.685760 -1.011121 0.000000 0.000001 8.296397 43.378333 -23.275051 40.110942 -0.000004 -0.000002 2.173908 8.042492 -13.494015 7.867818 1.927602 0.221410 6.049000 -12.268668 -5.320389 21.102790 4.959696 0.000003 0.000008 176.936829 175.049457 77.565466 -0.000005 0.000010 -8.654202 -44.065020 7.593204 3.533633 -0.000007 0.000004 -13.864100 1953.320448 -174.338366 229.148489 -3.155709 -0.764996 6.687805 26.380480 59.301212 84.961338 -3.592896 -0.000002 0.000010 -43.803256 -69.148821 69.066012 -0.000003 -0.000006 -10.352386 -156.359368 -128.383173 -154.483716 0.000002 0.000006 -12.750299 -16.256405 0.467126 53.205903 2.460596 -0.518114 -2.735507 84.138402 -33.632261 39.587022 -0.000006 -0.000000 -17.005898 -328.409839 162.411394 -125.931545 0.000000 -0.000005 -19.194403 406.416528 15.543086 19.420446 -3.115496 -0.679603 -2.320306 -27.079332 -31.279801 -21.697284 -0.000006 -0.000011 -17.680395 -80.077363 166.567209 -248.709126 0.000008 -0.000001 -16.993801 273.109267 29.364981 -49.326229
-57.025497 13.687103 41.276089 2069.157615 11.056299 6.834950 -0.201596 0.334101 6.453210 5.883184 14.217629 19.763050 0.000001 -0.000001 3.567989 -5.724225 -4.805746 -1.106680 -0.000002 -0.000015 8.296402 42.753777 -23.467574 40.160645 0.000004 0.000004 2.173899 8.161199 -13.789724 7.768118 1.927603 0.221396 6.049003 -11.890541 -5.129227 20.598893 4.959703 -0.000001 0.000007 175.329699 174.971551 77.814112 0.000004 0.000004 -8.654191 -45.065407 7.503077 3.673453 0.000000 0.000004 -13.864098 1950.864640 -173.781282 230.704775 -3.155701 -0.765005 6.687809 27.350280 59.640071 84.067389 -3.592895 0.000004 0.000004 -43.314276 -68.256963 68.135174 -0.000007 -0.000006 -10.352407 -155.971386 -129.275824 -154.512075 0.000000 0.000005 -12.750301 -13.470732 -1.291227 55.727985 2.460603 -0.518102 -2.735500 85.846872 -33.271006 41.893225 -0.000006 -0.000003 -17.005901 -329.900377 163.422576 -124.998213 -0.000001 0.000004 -19.194395 407.860348 15.189680 21.623501 -3.115493 -0.679597 -2.320305 -29.652843 -33.513488 -22.774602 -0.000010 -0.000003 -17.680397 -79.419336 165.711823 -249.131532 0.000002 -0.000001 -16.993793 271.558568 28.962546 -49.345262
-56.786995 13.588305 41.117397 2067.817587 12.137904 6.378215 -0.201598 0.334098 6.453213 4.748571 14.880887 19.869732 -0.000004 0.000002 3.568006 -5.677338 -4.979283 -1.167519 -0.000002 -0.000002 8.296399 42.174690 -23.709559 40.015025 0.000002 0.000006 2.173905 8.517414 -14.133985 7.626079 1.927599 0.221402 6.048999 -12.126158 -4.898049 20.199519 4.959706 0.000007 0.000000 174.342272 175.249868 77.783403 0.000009 0.000004 -8.654197 -45.312564 7.500117 3.737339 -0.000007 0.000003 -13.864097 1947.200162 -173.250972 231.699250 -3.155708 -0.765007 6.687810 29.748189 60.484474 80.745294 -3.592900 -0.000001 0.000012 -40.739404 -67.694872 70.173172 -0.000007 0.000000 -10.352402 -155.675243 -130.194580 -154.585663 -0.000002 -0.000003 -12.750307 -9.383364 -4.063911 57.723076 2.460596 -0.518101 -2.735497 87.212056 -32.864531 43.968561 0.000008 -0.000002 -17.005899 -330.735382 163.999973 -124.245635 -0.000007 0.000001 -19.194401 408.995607 14.923866 23.251340 -3.115496 -0.679594 -2.320299 -32.188643 -35.656070 -23.862056 -0.000004 0.000006 -17.680397 -78.914052 164.825019 -249.183551 -0.000000 -0.000005 -16.993790 270.283098 28.571163 -49.347611
-56.547096 13.491106 40.983994 2066.468597 13.208003 5.944906 -0.201608 0.334089 6.453200 3.516300 15.317854 20.019199 -0.000002 0.000007 3.567996 -5.492358 -5.025104 -1.192864 -0.000006 0.000005 8.296407 41.434308 -23.767376 39.705710 0.000000 -0.000001 2.173899 8.937402 -14.616945 7.491293 1.927602 0.221406 6.049006 -12.506552 -4.541168 19.904220 4.959701 -0.000005 -0.000000 173.573931 175.743595 77.647278 -0.000007 -0.000003 -8.654201 -44.452254 7.625766 3.544084 -0.000009 -0.000001 -13.864098 1942.225380 -172.630914 232.585864 -3.155709 -0.764997 6.687812 31.798359 61.276824 76.993731 -3.592899 0.000005 0.000001 -37.650311 -67.715315 72.814413 -0.000008 -0.000001 -10.352393 -155.419302 -131.138375 -154.631549 0.000001 0.000005 -12.750301 -3.633837 -7.859922 59.154868 2.460591 -0.518106 -2.735491 88.464706 -32.476682 45.928501 -0.000002 -0.000005 -17.005898 -332.911452 166.457243 -123.495749 -0.000008 0.000001 -19.194401 412.545612 14.885581 24.795894 -3.115503 -0.679597 -2.320297 -34.732680 -37.621030 -25.080082 -0.000012 0.000002 -17.680401 -78.624377 163.892684 -248.934850 0.000000 -0.000003 -16.993790 269.147293 28.324719 -49.278698
-56.306015 13.396000 40.873993 2065.192827 14.183307 5.411010 -0.201600 0.334100 6.453202 2.125815 15.933532 20.179939 -0.000006 0.000001 3.567996 -5.290367 -5.233101 -1.121743 -0.000002 -0.000004 8.296394 40.713532 -23.757374 39.352128 -0.000004 0.000003 2.173898 9.385387 -15.051715 7.373806 1.927598 0.221398 6.049004 -13.046291 -4.061770 19.787183 4.959705 -0.000005 0.000001 172.846461 176.342329 77.193896 -0.000002 0.000003 -8.654195 -42.592704 7.854198 3.382334 0.000003 0.000006 -13.864095 1936.257652 -172.029284 233.241671 -3.155702 -0.765002 6.687803 33.260914 62.298374 74.307008 -3.592911 -0.000002 0.000011 -36.630219 -66.272240 73.456697 -0.000001 -0.000005 -10.352387 -155.861611 -131.827637 -154.220877 -0.000005 0.000003 -12.750297 1.925338 -11.322917 60.847177 2.460597 -0.518099 -2.735507 89.440385 -32.056578 47.628111 -0.000003 -0.000005 -17.005894 -332.382495 165.716645 -123.004221 -0.000005 0.000008 -19.194401 412.240767 14.690514 25.697716 -3.115493 -0.679593 -2.320307 -37.229852 -39.391955 -26.245352 -0.000009 -0.000004 -17.680401 -78.595260 162.971196 -248.472392 -0.000000 -0.000003 -16.993801 268.339718 27.807633 -49.098822
